
<svg width="124" height="123" viewBox="0 0 124 123" fill="none" xmlns="http://www.w3.org/2000/svg">
<path d="M38.0949 72.1387C38.0292 71.4764 37.7473 70.9619 37.2492 70.5952C36.7512 70.2284 36.0752 70.0451 35.2213 70.0451C34.6411 70.0451 34.1512 70.1272 33.7516 70.2914C33.352 70.4501 33.0455 70.6718 32.8321 70.9564C32.6241 71.241 32.5201 71.564 32.5201 71.9252C32.5091 72.2263 32.5721 72.489 32.7089 72.7134C32.8512 72.9379 33.0455 73.1322 33.2918 73.2964C33.5382 73.4551 33.8228 73.5947 34.1457 73.7151C34.4687 73.83 34.8135 73.9286 35.1802 74.0107L36.6909 74.3719C37.4244 74.5361 38.0977 74.7551 38.7107 75.0288C39.3237 75.3024 39.8547 75.6391 40.3035 76.0386C40.7524 76.4382 41.0999 76.9089 41.3462 77.4508C41.598 77.9927 41.7267 78.614 41.7321 79.3146C41.7267 80.3436 41.4639 81.2358 40.9439 81.9912C40.4294 82.7411 39.685 83.324 38.7107 83.74C37.7419 84.1505 36.5733 84.3558 35.2049 84.3558C33.8474 84.3558 32.6651 84.1478 31.658 83.7318C30.6563 83.3158 29.8736 82.7 29.3098 81.8844C28.7515 81.0634 28.4587 80.0481 28.4313 78.8384H31.8714C31.9098 79.4022 32.0712 79.8729 32.3559 80.2506C32.646 80.6228 33.0318 80.9047 33.5135 81.0962C34.0007 81.2824 34.5508 81.3754 35.1638 81.3754C35.7659 81.3754 36.2886 81.2878 36.732 81.1127C37.1808 80.9375 37.5284 80.6939 37.7747 80.3819C38.021 80.07 38.1442 79.7114 38.1442 79.3064C38.1442 78.9287 38.032 78.6112 37.8076 78.354C37.5886 78.0967 37.2657 77.8778 36.8387 77.6971C36.4173 77.5165 35.9 77.3523 35.287 77.2045L33.456 76.7447C32.0384 76.3999 30.919 75.8608 30.098 75.1273C29.277 74.3938 28.8692 73.4058 28.8746 72.1633C28.8692 71.1452 29.1401 70.2558 29.6875 69.495C30.2403 68.7341 30.9984 68.1402 31.9618 67.7133C32.9251 67.2864 34.0198 67.0729 35.2459 67.0729C36.4939 67.0729 37.5831 67.2864 38.5137 67.7133C39.4496 68.1402 40.1776 68.7341 40.6976 69.495C41.2176 70.2558 41.4858 71.137 41.5022 72.1387H38.0949ZM59.5754 75.7102C59.5754 77.5439 59.2278 79.1039 58.5327 80.3902C57.843 81.6765 56.9015 82.659 55.7083 83.3377C54.5205 84.0109 53.1849 84.3476 51.7016 84.3476C50.2073 84.3476 48.8663 84.0082 47.6785 83.3295C46.4907 82.6508 45.552 81.6682 44.8623 80.3819C44.1727 79.0956 43.8278 77.5384 43.8278 75.7102C43.8278 73.8766 44.1727 72.3166 44.8623 71.0303C45.552 69.744 46.4907 68.7642 47.6785 68.091C48.8663 67.4123 50.2073 67.0729 51.7016 67.0729C53.1849 67.0729 54.5205 67.4123 55.7083 68.091C56.9015 68.7642 57.843 69.744 58.5327 71.0303C59.2278 72.3166 59.5754 73.8766 59.5754 75.7102ZM55.971 75.7102C55.971 74.5225 55.7931 73.5208 55.4373 72.7052C55.087 71.8897 54.5917 71.2711 53.9512 70.8497C53.3108 70.4282 52.561 70.2175 51.7016 70.2175C50.8422 70.2175 50.0924 70.4282 49.452 70.8497C48.8115 71.2711 48.3134 71.8897 47.9577 72.7052C47.6073 73.5208 47.4322 74.5225 47.4322 75.7102C47.4322 76.898 47.6073 77.8997 47.9577 78.7152C48.3134 79.5308 48.8115 80.1493 49.452 80.5708C50.0924 80.9923 50.8422 81.203 51.7016 81.203C52.561 81.203 53.3108 80.9923 53.9512 80.5708C54.5917 80.1493 55.087 79.5308 55.4373 78.7152C55.7931 77.8997 55.971 76.898 55.971 75.7102ZM77.045 73.1896H73.4489C73.3832 72.7244 73.2491 72.3111 73.0466 71.9499C72.8441 71.5831 72.5841 71.2711 72.2666 71.0139C71.9491 70.7566 71.5824 70.5596 71.1664 70.4227C70.7559 70.2859 70.3098 70.2175 69.8281 70.2175C68.9578 70.2175 68.1997 70.4337 67.5538 70.8661C66.9079 71.293 66.4071 71.917 66.0513 72.7381C65.6955 73.5536 65.5176 74.5444 65.5176 75.7102C65.5176 76.9089 65.6955 77.9161 66.0513 78.7317C66.4126 79.5472 66.9162 80.163 67.562 80.579C68.2079 80.995 68.9551 81.203 69.8035 81.203C70.2797 81.203 70.7203 81.14 71.1253 81.0141C71.5359 80.8883 71.8999 80.7049 72.2173 80.464C72.5348 80.2177 72.7975 79.9194 73.0055 79.5691C73.219 79.2188 73.3668 78.8192 73.4489 78.3704L77.045 78.3868C76.952 79.1586 76.7194 79.903 76.3472 80.62C75.9804 81.3316 75.4851 81.9693 74.8611 82.5331C74.2426 83.0914 73.5036 83.5347 72.6443 83.8632C71.7904 84.1861 70.8243 84.3476 69.746 84.3476C68.2462 84.3476 66.9052 84.0082 65.7229 83.3295C64.5461 82.6508 63.6156 81.6682 62.9314 80.3819C62.2526 79.0956 61.9133 77.5384 61.9133 75.7102C61.9133 73.8766 62.2581 72.3166 62.9478 71.0303C63.6375 69.744 64.5735 68.7642 65.7557 68.091C66.938 67.4123 68.2681 67.0729 69.746 67.0729C70.7203 67.0729 71.6234 67.2097 72.4554 67.4834C73.2929 67.7571 74.0346 68.1567 74.6805 68.6821C75.3263 69.2021 75.8518 69.8398 76.2568 70.5952C76.6674 71.3505 76.9301 72.2153 77.045 73.1896ZM79.4958 84.1177V81.556L85.4812 76.014C85.9903 75.5214 86.4172 75.078 86.762 74.6839C87.1124 74.2898 87.3778 73.9039 87.5585 73.5263C87.7391 73.1431 87.8294 72.7299 87.8294 72.2865C87.8294 71.7939 87.7172 71.3697 87.4928 71.0139C87.2684 70.6526 86.9618 70.3762 86.5732 70.1846C86.1846 69.9876 85.744 69.8891 85.2513 69.8891C84.7368 69.8891 84.288 69.9931 83.9048 70.2011C83.5217 70.409 83.2261 70.7074 83.0181 71.096C82.8101 71.4846 82.7061 71.9471 82.7061 72.4835H79.3316C79.3316 71.3833 79.5807 70.4282 80.0788 69.6181C80.5769 68.808 81.2748 68.1813 82.1724 67.7379C83.0701 67.2946 84.1046 67.0729 85.276 67.0729C86.4802 67.0729 87.5284 67.2864 88.4205 67.7133C89.3182 68.1348 90.0161 68.7204 90.5142 69.4703C91.0123 70.2202 91.2613 71.0796 91.2613 72.0484C91.2613 72.6833 91.1355 73.3101 90.8837 73.9286C90.6374 74.5471 90.1967 75.234 89.5618 75.9894C88.9269 76.7393 88.0319 77.6397 86.877 78.6906L84.4221 81.0962V81.2112H91.483V84.1177H79.4958Z" fill="black"/>
<path d="M30.2376 56.0643H28.1029L34.2771 39.2494H36.3789L42.5532 56.0643H40.4185L35.3937 41.9096H35.2623L30.2376 56.0643ZM31.0258 49.496H39.6303V51.3023H31.0258V49.496ZM47.2085 39.2494V56.0643H45.1723V39.2494H47.2085ZM64.8218 44.5041H62.7856C62.6652 43.9184 62.4545 43.4039 62.1534 42.9605C61.8579 42.5172 61.4966 42.145 61.0697 41.8439C60.6482 41.5374 60.1802 41.3075 59.6657 41.1543C59.1512 41.001 58.6148 40.9244 58.0564 40.9244C57.0384 40.9244 56.1161 41.1816 55.2895 41.6961C54.4685 42.2107 53.8144 42.9687 53.3273 43.9704C52.8456 44.9721 52.6047 46.2009 52.6047 47.6569C52.6047 49.1129 52.8456 50.3417 53.3273 51.3434C53.8144 52.345 54.4685 53.1031 55.2895 53.6176C56.1161 54.1322 57.0384 54.3894 58.0564 54.3894C58.6148 54.3894 59.1512 54.3128 59.6657 54.1595C60.1802 54.0063 60.6482 53.7791 61.0697 53.4781C61.4966 53.1715 61.8579 52.7966 62.1534 52.3532C62.4545 51.9044 62.6652 51.3899 62.7856 50.8097H64.8218C64.6686 51.669 64.3894 52.4381 63.9844 53.1168C63.5793 53.7955 63.0757 54.373 62.4736 54.8492C61.8715 55.3199 61.1956 55.6784 60.4457 55.9248C59.7013 56.1711 58.9049 56.2942 58.0564 56.2942C56.6224 56.2942 55.347 55.9439 54.2304 55.2433C53.1138 54.5427 52.2353 53.5465 51.5949 52.2547C50.9545 50.9629 50.6342 49.4303 50.6342 47.6569C50.6342 45.8834 50.9545 44.3508 51.5949 43.0591C52.2353 41.7673 53.1138 40.7711 54.2304 40.0705C55.347 39.3699 56.6224 39.0195 58.0564 39.0195C58.9049 39.0195 59.7013 39.1427 60.4457 39.389C61.1956 39.6353 61.8715 39.9966 62.4736 40.4728C63.0757 40.9435 63.5793 41.5182 63.9844 42.197C64.3894 42.8702 64.6686 43.6393 64.8218 44.5041ZM68.1121 56.0643V39.2494H73.7937C75.1129 39.2494 76.1912 39.4875 77.0286 39.9637C77.8716 40.4345 78.4955 41.0721 78.9006 41.8768C79.3056 42.6814 79.5082 43.5791 79.5082 44.5698C79.5082 45.5605 79.3056 46.4609 78.9006 47.271C78.501 48.0811 77.8825 48.727 77.045 49.2086C76.2076 49.6849 75.1348 49.923 73.8266 49.923H69.7542V48.1167H73.7609C74.664 48.1167 75.3893 47.9607 75.9366 47.6487C76.484 47.3367 76.8808 46.9152 77.1271 46.3843C77.3789 45.8479 77.5048 45.243 77.5048 44.5698C77.5048 43.8965 77.3789 43.2944 77.1271 42.7635C76.8808 42.2325 76.4813 41.8166 75.9284 41.5155C75.3756 41.209 74.6421 41.0557 73.728 41.0557H70.1483V56.0643H68.1121ZM81.7619 56.0643H79.6272L85.8014 39.2494H87.9033L94.0775 56.0643H91.9428L86.918 41.9096H86.7867L81.7619 56.0643ZM82.5501 49.496H91.1546V51.3023H82.5501V49.496Z" fill="black"/>
</svg>
