
<svg width="104" height="104" viewBox="0 0 104 104" fill="none" xmlns="http://www.w3.org/2000/svg">
<path d="M51.7115 0.345093L53.2385 5.04472H58.18L54.1823 7.94925L55.7093 12.6489L51.7115 9.74435L47.7138 12.6489L49.2408 7.94925L45.243 5.04472H50.1845L51.7115 0.345093Z" fill="black"/>
<path d="M74.0025 6.31885L75.5295 11.0185H80.471L76.4733 13.923L78.0003 18.6226L74.0025 15.7181L70.0048 18.6226L71.5318 13.923L67.5341 11.0185H72.4755L74.0025 6.31885Z" fill="black"/>
<path d="M29.6693 6.31885L28.1423 11.0185H23.2009L27.1986 13.923L25.6716 18.6226L29.6693 15.7181L33.6671 18.6226L32.1401 13.923L36.1378 11.0185H31.1963L29.6693 6.31885Z" fill="black"/>
<path d="M90.3229 22.6385L91.8499 27.3382H96.7913L92.7936 30.2427L94.3206 34.9423L90.3229 32.0378L86.3251 34.9423L87.8521 30.2427L83.8544 27.3382H88.7958L90.3229 22.6385Z" fill="black"/>
<path d="M13.349 22.6385L11.822 27.3382H6.88054L10.8783 30.2427L9.35128 34.9423L13.349 32.0378L17.3468 34.9423L15.8198 30.2427L19.8175 27.3382H14.876L13.349 22.6385Z" fill="black"/>
<path d="M96.2955 44.9318L97.8225 49.6314H102.764L98.7662 52.5359L100.293 57.2355L96.2955 54.331L92.2978 57.2355L93.8248 52.5359L89.827 49.6314H94.7685L96.2955 44.9318Z" fill="black"/>
<path d="M7.37637 44.9318L5.84937 49.6314H0.907885L4.90563 52.5359L3.37863 57.2355L7.37637 54.331L11.3741 57.2355L9.84711 52.5359L13.8449 49.6314H8.90337L7.37637 44.9318Z" fill="black"/>
<path d="M90.3229 67.225L91.8499 71.9246H96.7913L92.7936 74.8291L94.3206 79.5288L90.3229 76.6242L86.3251 79.5288L87.8521 74.8291L83.8544 71.9246H88.7958L90.3229 67.225Z" fill="black"/>
<path d="M13.349 67.225L11.822 71.9246H6.88054L10.8783 74.8291L9.35128 79.5288L13.349 76.6242L17.3468 79.5288L15.8198 74.8291L19.8175 71.9246H14.876L13.349 67.225Z" fill="black"/>
<path d="M74.0025 83.5448L75.5295 88.2444H80.471L76.4733 91.149L78.0003 95.8486L74.0025 92.9441L70.0048 95.8486L71.5318 91.149L67.5341 88.2444H72.4755L74.0025 83.5448Z" fill="black"/>
<path d="M29.6693 83.5448L28.1423 88.2444H23.2009L27.1986 91.149L25.6716 95.8486L29.6693 92.9441L33.6671 95.8486L32.1401 91.149L36.1378 88.2444H31.1963L29.6693 83.5448Z" fill="black"/>
<path d="M51.7115 89.5186L53.2385 94.2182H58.18L54.1823 97.1227L55.7093 101.822L51.7115 98.9178L47.7138 101.822L49.2408 97.1227L45.243 94.2182H50.1845L51.7115 89.5186Z" fill="black"/>
<path d="M36.7255 49.5729C36.6379 49.2681 36.5147 48.9989 36.3561 48.7651C36.1974 48.5272 36.0033 48.3268 35.7737 48.164C35.5483 47.997 35.2895 47.8697 34.9973 47.782C34.7092 47.6943 34.3899 47.6505 34.0392 47.6505C33.3838 47.6505 32.8077 47.8133 32.311 48.1389C31.8184 48.4645 31.4343 48.9384 31.1588 49.5604C30.8833 50.1782 30.7455 50.9338 30.7455 51.8271C30.7455 52.7205 30.8812 53.4802 31.1525 54.1064C31.4239 54.7326 31.8079 55.2106 32.3047 55.5404C32.8015 55.866 33.388 56.0288 34.0643 56.0288C34.6779 56.0288 35.2018 55.9202 35.636 55.7032C36.0743 55.4819 36.4083 55.1709 36.6379 54.7702C36.8716 54.3694 36.9885 53.8956 36.9885 53.3487L37.5395 53.4301H34.2333V51.3888H39.5997V53.0043C39.5997 54.1315 39.3617 55.0999 38.8858 55.9098C38.4099 56.7155 37.7545 57.3375 36.9196 57.7758C36.0847 58.21 35.1288 58.427 34.0517 58.427C32.8495 58.427 31.7933 58.162 30.8833 57.6318C29.9732 57.0975 29.2636 56.3398 28.7543 55.3588C28.2492 54.3736 27.9966 53.2047 27.9966 51.8522C27.9966 50.8127 28.1469 49.886 28.4474 49.0719C28.7522 48.2537 29.178 47.5608 29.7248 46.993C30.2717 46.4253 30.9083 45.9932 31.6347 45.6968C32.3611 45.4004 33.148 45.2523 33.9954 45.2523C34.7217 45.2523 35.398 45.3587 36.0242 45.5716C36.6504 45.7803 37.2056 46.0767 37.6898 46.4608C38.1782 46.8448 38.5769 47.3019 38.8858 47.8321C39.1947 48.3581 39.393 48.9384 39.4807 49.5729H36.7255ZM46.1824 58.2517H41.6363V45.4276H46.2199C47.5099 45.4276 48.6203 45.6843 49.5512 46.1978C50.4821 46.7071 51.1981 47.4397 51.699 48.3957C52.2041 49.3516 52.4567 50.4955 52.4567 51.8271C52.4567 53.163 52.2041 54.311 51.699 55.2711C51.1981 56.2312 50.4779 56.968 49.5387 57.4815C48.6036 57.995 47.4848 58.2517 46.1824 58.2517ZM44.3477 55.9286H46.0697C46.8712 55.9286 47.5453 55.7867 48.0922 55.5028C48.6432 55.2147 49.0565 54.7702 49.332 54.169C49.6117 53.5637 49.7516 52.7831 49.7516 51.8271C49.7516 50.8795 49.6117 50.1051 49.332 49.504C49.0565 48.9029 48.6453 48.4604 48.0985 48.1765C47.5516 47.8926 46.8774 47.7507 46.0759 47.7507H44.3477V55.9286ZM54.4651 58.2517V45.4276H59.5247C60.4973 45.4276 61.326 45.6134 62.0106 45.9849C62.6952 46.3522 63.217 46.8636 63.576 47.519C63.9392 48.1702 64.1208 48.9217 64.1208 49.7733C64.1208 50.6249 63.9371 51.3763 63.5698 52.0275C63.2024 52.6787 62.6702 53.1859 61.973 53.5491C61.28 53.9123 60.441 54.0939 59.4558 54.0939H56.231V51.921H59.0175C59.5393 51.921 59.9692 51.8313 60.3074 51.6518C60.6497 51.4681 60.9043 51.2156 61.0713 50.8941C61.2425 50.5685 61.328 50.1949 61.328 49.7733C61.328 49.3475 61.2425 48.9759 61.0713 48.6587C60.9043 48.3372 60.6497 48.0888 60.3074 47.9135C59.9651 47.734 59.5309 47.6443 59.0049 47.6443H57.1765V58.2517H54.4651ZM65.8819 58.2517V45.4276H70.9414C71.9099 45.4276 72.7365 45.6008 73.4211 45.9473C74.1099 46.2896 74.6338 46.776 74.9928 47.4063C75.356 48.0325 75.5376 48.7693 75.5376 49.6167C75.5376 50.4683 75.3539 51.2009 74.9866 51.8146C74.6192 52.4241 74.0869 52.8916 73.3898 53.2172C72.6968 53.5429 71.8578 53.7057 70.8726 53.7057H67.4849V51.5266H70.4342C70.9519 51.5266 71.3819 51.4556 71.7242 51.3137C72.0665 51.1717 72.3211 50.9588 72.4881 50.675C72.6593 50.3911 72.7448 50.0383 72.7448 49.6167C72.7448 49.1909 72.6593 48.8319 72.4881 48.5397C72.3211 48.2475 72.0644 48.0262 71.7179 47.8759C71.3756 47.7215 70.9435 47.6443 70.4217 47.6443H68.5933V58.2517H65.8819ZM72.8075 52.4157L75.9947 58.2517H73.0016L69.8832 52.4157H72.8075Z" fill="black"/>
</svg>
