
<svg width="124" height="124" viewBox="0 0 124 124" fill="none" xmlns="http://www.w3.org/2000/svg">
<path d="M33.1875 70.8253C33.136 70.3062 32.9151 69.9029 32.5247 69.6155C32.1343 69.3281 31.6045 69.1843 30.9352 69.1843C30.4805 69.1843 30.0965 69.2487 29.7833 69.3774C29.4701 69.5018 29.2299 69.6756 29.0626 69.8986C28.8995 70.1217 28.818 70.3749 28.818 70.658C28.8095 70.894 28.8588 71.0999 28.966 71.2758C29.0776 71.4517 29.2299 71.604 29.4229 71.7327C29.616 71.8571 29.8391 71.9665 30.0922 72.0609C30.3453 72.151 30.6156 72.2282 30.903 72.2925L32.0871 72.5757C32.662 72.7044 33.1897 72.876 33.6702 73.0905C34.1507 73.305 34.5668 73.5688 34.9186 73.882C35.2704 74.1952 35.5428 74.5641 35.7358 74.9889C35.9332 75.4136 36.034 75.9005 36.0383 76.4497C36.034 77.2562 35.8281 77.9555 35.4205 78.5475C35.0173 79.1353 34.4338 79.5922 33.6702 79.9182C32.9108 80.24 31.9949 80.4009 30.9223 80.4009C29.8584 80.4009 28.9317 80.2378 28.1423 79.9118C27.3573 79.5857 26.7438 79.1031 26.3019 78.4639C25.8643 77.8203 25.6348 77.0245 25.6133 76.0764H28.3097C28.3397 76.5183 28.4662 76.8872 28.6893 77.1833C28.9167 77.475 29.2192 77.6959 29.5967 77.8461C29.9785 77.992 30.4097 78.0649 30.8902 78.0649C31.3621 78.0649 31.7718 77.9962 32.1193 77.859C32.4711 77.7217 32.7435 77.5308 32.9365 77.2862C33.1296 77.0417 33.2261 76.7607 33.2261 76.4432C33.2261 76.1472 33.1382 75.8984 32.9623 75.6967C32.7907 75.4951 32.5376 75.3235 32.2029 75.1819C31.8726 75.0404 31.4672 74.9116 30.9867 74.7958L29.5516 74.4354C28.4405 74.1652 27.5632 73.7426 26.9197 73.1677C26.2761 72.5928 25.9565 71.8185 25.9608 70.8446C25.9565 70.0467 26.1689 69.3495 26.5979 68.7532C27.0312 68.1569 27.6254 67.6914 28.3804 67.3568C29.1355 67.0221 29.9935 66.8548 30.9545 66.8548C31.9327 66.8548 32.7864 67.0221 33.5157 67.3568C34.2493 67.6914 34.8199 68.1569 35.2275 68.7532C35.635 69.3495 35.8452 70.0402 35.8581 70.8253H33.1875ZM37.9125 80.2142V67.035H46.7931V69.3324H40.699V72.4727H46.3362V74.7701H40.699V77.9169H46.8188V80.2142H37.9125ZM60.6368 71.649H57.8182C57.7667 71.2844 57.6616 70.9605 57.5028 70.6773C57.3441 70.3899 57.1403 70.1453 56.8915 69.9437C56.6427 69.7421 56.3552 69.5876 56.0292 69.4804C55.7074 69.3731 55.3578 69.3195 54.9802 69.3195C54.2981 69.3195 53.7039 69.4889 53.1977 69.8279C52.6915 70.1625 52.2989 70.6516 52.0201 71.2951C51.7412 71.9343 51.6018 72.7108 51.6018 73.6246C51.6018 74.5641 51.7412 75.3535 52.0201 75.9928C52.3032 76.632 52.6979 77.1146 53.2041 77.4407C53.7104 77.7667 54.296 77.9297 54.9609 77.9297C55.3342 77.9297 55.6795 77.8804 55.997 77.7817C56.3188 77.6831 56.6041 77.5393 56.8529 77.3506C57.1017 77.1575 57.3076 76.9237 57.4707 76.6491C57.638 76.3746 57.7538 76.0614 57.8182 75.7096L60.6368 75.7225C60.5638 76.3274 60.3815 76.9108 60.0898 77.4728C59.8023 78.0306 59.4141 78.5304 58.925 78.9722C58.4402 79.4098 57.8611 79.7573 57.1875 80.0147C56.5182 80.2679 55.761 80.3944 54.9159 80.3944C53.7404 80.3944 52.6893 80.1284 51.7627 79.5965C50.8403 79.0645 50.111 78.2944 49.5747 77.2862C49.0427 76.2781 48.7767 75.0575 48.7767 73.6246C48.7767 72.1874 49.047 70.9647 49.5876 69.9566C50.1281 68.9484 50.8617 68.1805 51.7884 67.6528C52.7151 67.1208 53.7576 66.8548 54.9159 66.8548C55.6795 66.8548 56.3874 66.9621 57.0395 67.1766C57.6959 67.3911 58.2772 67.7043 58.7834 68.1161C59.2897 68.5237 59.7015 69.0235 60.019 69.6155C60.3407 70.2075 60.5467 70.8854 60.6368 71.649ZM70.7754 67.035H73.5618V75.5938C73.5618 76.5548 73.3323 77.3956 72.8732 78.1164C72.4185 78.8371 71.7814 79.3991 70.962 79.8024C70.1426 80.2014 69.188 80.4009 68.0983 80.4009C67.0044 80.4009 66.0477 80.2014 65.2283 79.8024C64.4088 79.3991 63.7718 78.8371 63.317 78.1164C62.8623 77.3956 62.6349 76.5548 62.6349 75.5938V67.035H65.4213V75.3557C65.4213 75.8576 65.5307 76.3038 65.7495 76.6942C65.9726 77.0846 66.2858 77.3913 66.689 77.6144C67.0923 77.8375 67.5621 77.9491 68.0983 77.9491C68.6389 77.9491 69.1087 77.8375 69.5077 77.6144C69.9109 77.3913 70.222 77.0846 70.4408 76.6942C70.6638 76.3038 70.7754 75.8576 70.7754 75.3557V67.035ZM75.8543 80.2142V67.035H81.054C82.0493 67.035 82.8987 67.213 83.6023 67.5691C84.3102 67.9209 84.8486 68.4207 85.2175 69.0685C85.5908 69.712 85.7774 70.4692 85.7774 71.3401C85.7774 72.2153 85.5886 72.9682 85.2111 73.5989C84.8336 74.2252 84.2866 74.7057 83.5701 75.0404C82.858 75.375 81.9956 75.5423 80.9832 75.5423H77.5017V73.3029H80.5327C81.0647 73.3029 81.5066 73.2299 81.8584 73.0841C82.2102 72.9382 82.4718 72.7194 82.6435 72.4277C82.8193 72.1359 82.9073 71.7734 82.9073 71.3401C82.9073 70.9025 82.8193 70.5336 82.6435 70.2333C82.4718 69.933 82.208 69.7056 81.8519 69.5511C81.5001 69.3924 81.0561 69.313 80.5198 69.313H78.6408V80.2142H75.8543ZM82.9716 74.2166L86.2472 80.2142H83.1711L79.9664 74.2166H82.9716ZM87.7465 80.2142V67.035H96.6271V69.3324H90.533V72.4727H96.1702V74.7701H90.533V77.9169H96.6528V80.2142H87.7465Z" fill="black"/>
<path d="M35.4977 49.1661C35.3562 48.7328 35.1696 48.3445 34.9379 48.0013C34.7105 47.6538 34.4381 47.3578 34.1206 47.1133C33.8074 46.8687 33.4514 46.6821 33.0524 46.5534C32.6534 46.4247 32.2158 46.3603 31.7396 46.3603C30.9588 46.3603 30.2488 46.562 29.6096 46.9652C28.9703 47.3685 28.462 47.9627 28.0844 48.7478C27.7069 49.5329 27.5181 50.496 27.5181 51.6372C27.5181 52.7784 27.709 53.7415 28.0909 54.5266C28.4727 55.3117 28.9896 55.9059 29.6417 56.3091C30.2938 56.7124 31.0274 56.914 31.8426 56.914C32.5976 56.914 33.2626 56.7532 33.8375 56.4314C34.4166 56.1053 34.8671 55.6463 35.1889 55.0543C35.5149 54.4579 35.6779 53.7565 35.6779 52.95L36.167 53.0529H32.2029V51.6372H37.2224V53.0529C37.2224 54.1383 36.9907 55.0822 36.5274 55.8844C36.0683 56.6867 35.4334 57.3087 34.6226 57.7506C33.816 58.1882 32.8894 58.407 31.8426 58.407C30.6757 58.407 29.6503 58.1324 28.7666 57.5833C27.8871 57.0342 27.2007 56.2534 26.7073 55.2409C26.2182 54.2284 25.9737 53.0272 25.9737 51.6372C25.9737 50.5947 26.1131 49.6573 26.392 48.825C26.6751 47.9884 27.0741 47.2763 27.5889 46.6885C28.1037 46.1008 28.7129 45.6503 29.4165 45.3371C30.1201 45.024 30.8945 44.8674 31.7396 44.8674C32.4346 44.8674 33.0824 44.9725 33.683 45.1827C34.2879 45.3886 34.8263 45.6825 35.2983 46.0643C35.7745 46.4419 36.1713 46.8945 36.4888 47.4221C36.8062 47.9455 37.025 48.5269 37.1452 49.1661H35.4977ZM51.0757 51.6372C51.0757 53.0272 50.8247 54.2284 50.3228 55.2409C49.8208 56.2534 49.1323 57.0342 48.2571 57.5833C47.3819 58.1324 46.3823 58.407 45.2583 58.407C44.1343 58.407 43.1347 58.1324 42.2595 57.5833C41.3843 57.0342 40.6958 56.2534 40.1938 55.2409C39.6919 54.2284 39.4409 53.0272 39.4409 51.6372C39.4409 50.2472 39.6919 49.046 40.1938 48.0335C40.6958 47.021 41.3843 46.2402 42.2595 45.6911C43.1347 45.1419 44.1343 44.8674 45.2583 44.8674C46.3823 44.8674 47.3819 45.1419 48.2571 45.6911C49.1323 46.2402 49.8208 47.021 50.3228 48.0335C50.8247 49.046 51.0757 50.2472 51.0757 51.6372ZM49.5313 51.6372C49.5313 50.496 49.3403 49.5329 48.9585 48.7478C48.581 47.9627 48.0683 47.3685 47.4205 46.9652C46.777 46.562 46.0563 46.3603 45.2583 46.3603C44.4603 46.3603 43.7375 46.562 43.0896 46.9652C42.4461 47.3685 41.9335 47.9627 41.5516 48.7478C41.1741 49.5329 40.9853 50.496 40.9853 51.6372C40.9853 52.7784 41.1741 53.7415 41.5516 54.5266C41.9335 55.3117 42.4461 55.9059 43.0896 56.3091C43.7375 56.7124 44.4603 56.914 45.2583 56.914C46.0563 56.914 46.777 56.7124 47.4205 56.3091C48.0683 55.9059 48.581 55.3117 48.9585 54.5266C49.3403 53.7415 49.5313 52.7784 49.5313 51.6372ZM64.8791 51.6372C64.8791 53.0272 64.6282 54.2284 64.1262 55.2409C63.6243 56.2534 62.9357 57.0342 62.0605 57.5833C61.1854 58.1324 60.1858 58.407 59.0618 58.407C57.9377 58.407 56.9381 58.1324 56.063 57.5833C55.1878 57.0342 54.4992 56.2534 53.9973 55.2409C53.4953 54.2284 53.2444 53.0272 53.2444 51.6372C53.2444 50.2472 53.4953 49.046 53.9973 48.0335C54.4992 47.021 55.1878 46.2402 56.063 45.6911C56.9381 45.1419 57.9377 44.8674 59.0618 44.8674C60.1858 44.8674 61.1854 45.1419 62.0605 45.6911C62.9357 46.2402 63.6243 47.021 64.1262 48.0335C64.6282 49.046 64.8791 50.2472 64.8791 51.6372ZM63.3347 51.6372C63.3347 50.496 63.1438 49.5329 62.762 48.7478C62.3844 47.9627 61.8718 47.3685 61.224 46.9652C60.5805 46.562 59.8597 46.3603 59.0618 46.3603C58.2638 46.3603 57.5409 46.562 56.8931 46.9652C56.2496 47.3685 55.7369 47.9627 55.3551 48.7478C54.9776 49.5329 54.7888 50.496 54.7888 51.6372C54.7888 52.7784 54.9776 53.7415 55.3551 54.5266C55.7369 55.3117 56.2496 55.9059 56.8931 56.3091C57.5409 56.7124 58.2638 56.914 59.0618 56.914C59.8597 56.914 60.5805 56.7124 61.224 56.3091C61.8718 55.9059 62.3844 55.3117 62.762 54.5266C63.1438 53.7415 63.3347 52.7784 63.3347 51.6372ZM76.5719 49.1661C76.4303 48.7328 76.2437 48.3445 76.012 48.0013C75.7846 47.6538 75.5122 47.3578 75.1947 47.1133C74.8816 46.8687 74.5255 46.6821 74.1265 46.5534C73.7275 46.4247 73.2899 46.3603 72.8137 46.3603C72.0329 46.3603 71.3229 46.562 70.6837 46.9652C70.0445 47.3685 69.5361 47.9627 69.1585 48.7478C68.781 49.5329 68.5922 50.496 68.5922 51.6372C68.5922 52.7784 68.7832 53.7415 69.165 54.5266C69.5468 55.3117 70.0638 55.9059 70.7159 56.3091C71.368 56.7124 72.1016 56.914 72.9167 56.914C73.6717 56.914 74.3367 56.7532 74.9116 56.4314C75.4908 56.1053 75.9412 55.6463 76.263 55.0543C76.589 54.4579 76.752 53.7565 76.752 52.95L77.2411 53.0529H73.2771V51.6372H78.2965V53.0529C78.2965 54.1383 78.0648 55.0822 77.6015 55.8844C77.1424 56.6867 76.5075 57.3087 75.6967 57.7506C74.8901 58.1882 73.9635 58.407 72.9167 58.407C71.7498 58.407 70.7244 58.1324 69.8407 57.5833C68.9612 57.0342 68.2748 56.2534 67.7814 55.2409C67.2923 54.2284 67.0478 53.0272 67.0478 51.6372C67.0478 50.5947 67.1872 49.6573 67.4661 48.825C67.7492 47.9884 68.1482 47.2763 68.663 46.6885C69.1778 46.1008 69.787 45.6503 70.4906 45.3371C71.1942 45.024 71.9686 44.8674 72.8137 44.8674C73.5087 44.8674 74.1565 44.9725 74.7571 45.1827C75.3621 45.3886 75.9005 45.6825 76.3724 46.0643C76.8486 46.4419 77.2454 46.8945 77.5629 47.4221C77.8803 47.9455 78.0991 48.5269 78.2193 49.1661H76.5719ZM81.0298 58.2268V45.0476H82.6258V56.8111H88.752V58.2268H81.0298ZM91.2232 58.2268V45.0476H99.177V46.4633H92.8191V50.9164H98.7652V52.3322H92.8191V56.8111H99.28V58.2268H91.2232Z" fill="black"/>
</svg>
